<?xml version="1.0" standalone="no"?>
<!DOCTYPE svg PUBLIC "-//W3C//DTD SVG 20010904//EN"
 "http://www.w3.org/TR/2001/REC-SVG-20010904/DTD/svg10.dtd">
<svg version="1.0" xmlns="http://www.w3.org/2000/svg"
 width="676.000000pt" height="676.000000pt" viewBox="0 0 676.000000 676.000000"
 preserveAspectRatio="xMidYMid meet">
<metadata>
Created by potrace 1.11, written by Peter Selinger 2001-2013
</metadata>
<g transform="translate(0.000000,676.000000) scale(0.100000,-0.100000)"
fill="#000000" stroke="none">
<path d="M4375 6743 c-140 -29 -318 -115 -487 -236 -351 -252 -529 -449 -602
-667 -30 -91 -37 -135 -37 -220 1 -106 29 -178 83 -218 9 -7 24 -19 32 -28 8
-8 18 -15 21 -15 19 1 64 -13 61 -18 -3 -4 10 -6 27 -6 18 1 35 -4 39 -9 5 -7
8 -7 8 2 0 6 4 12 10 12 5 0 7 -8 4 -17 -5 -15 -4 -15 4 -4 11 15 20 18 82 27
19 3 41 7 48 9 8 3 10 0 6 -8 -5 -8 -2 -7 9 2 9 7 17 10 17 5 0 -5 5 -2 10 6
8 12 12 13 19 2 6 -11 10 -10 15 3 4 12 14 16 32 12 15 -3 28 1 30 8 5 11 58
30 77 26 4 0 7 4 7 9 0 6 6 10 14 10 8 0 32 10 52 22 26 15 35 17 30 8 -4 -8
-1 -7 7 2 8 10 17 15 20 11 4 -3 9 2 13 11 3 9 12 16 19 16 7 0 23 8 36 19 13
10 31 16 39 13 8 -3 12 -1 7 3 -9 11 103 86 117 78 6 -3 8 -3 4 1 -10 11 81
78 94 70 7 -4 8 -3 4 4 -7 12 30 36 44 27 5 -3 12 0 16 6 4 8 3 9 -4 5 -7 -4
-12 -2 -12 3 0 6 4 11 8 11 5 0 18 9 30 21 12 11 27 17 32 14 6 -3 10 -1 10 6
0 6 12 23 26 36 22 20 29 22 42 11 14 -10 15 -10 5 2 -15 17 -17 34 -3 25 6
-3 10 1 10 10 0 11 5 15 14 12 10 -4 13 -1 9 9 -4 10 2 17 16 21 11 3 19 9 16
13 -6 9 57 76 68 72 5 -1 6 2 3 7 -4 5 6 19 20 30 15 12 24 21 20 21 -3 0 6
13 20 30 15 16 30 28 33 25 4 -2 8 6 8 18 1 12 9 27 17 33 9 6 13 14 10 17 -3
3 -2 12 2 19 5 7 9 18 11 23 1 6 5 21 8 35 13 54 7 146 -15 202 -40 107 -161
270 -213 287 -53 17 -147 19 -222 4z"/>
<path d="M3376 5342 c-3 -5 1 -9 9 -9 8 0 12 4 9 9 -3 4 -7 8 -9 8 -2 0 -6 -4
-9 -8z"/>
<path d="M2608 4505 c-2 -2 -26 -5 -54 -9 -136 -16 -348 -103 -453 -186 -82
-65 -249 -238 -357 -370 -16 -19 -34 -40 -39 -46 -6 -6 -27 -31 -46 -54 -18
-23 -38 -47 -44 -54 -8 -9 -95 -117 -145 -179 -8 -11 -20 -24 -25 -31 -17 -18
-218 -287 -256 -340 -19 -27 -47 -67 -63 -90 -60 -84 -246 -365 -318 -481
-248 -399 -417 -707 -503 -920 -20 -49 -40 -99 -45 -110 -10 -24 -51 -144 -55
-165 -2 -8 -11 -42 -19 -75 -9 -33 -19 -87 -23 -120 -8 -66 -7 -292 1 -340 9
-52 18 -119 20 -147 0 -16 4 -28 8 -28 5 0 7 -3 7 -7 -1 -5 0 -10 1 -13 1 -5
4 -15 14 -55 2 -11 15 -42 27 -70 13 -27 24 -52 24 -55 5 -23 39 -83 69 -123
20 -26 36 -49 36 -51 0 -8 91 -96 100 -96 5 0 15 -9 22 -20 7 -11 18 -20 24
-20 5 0 20 -9 32 -20 12 -11 24 -20 27 -20 3 1 34 -13 69 -30 35 -16 71 -30
79 -30 9 0 19 -5 22 -10 3 -6 19 -10 36 -10 16 0 29 -4 29 -9 0 -6 9 -8 20 -6
11 2 22 0 25 -4 2 -5 16 -7 30 -6 22 3 30 -5 26 -28 0 -4 4 -7 10 -7 6 0 8 7
5 16 -5 13 0 14 32 9 20 -3 63 -6 95 -6 32 0 57 -5 57 -11 0 -6 7 -5 17 3 15
12 16 12 10 -5 -7 -17 -6 -17 9 -5 20 16 66 19 76 4 5 -6 8 -5 8 4 0 11 3 11
17 0 9 -8 14 -9 10 -3 -9 16 75 17 85 2 5 -9 8 -7 8 6 0 19 0 19 22 0 20 -17
21 -17 9 -1 -13 16 -12 18 12 13 17 -3 27 0 27 7 0 8 3 8 8 2 9 -12 44 -16 36
-4 -3 5 4 9 15 9 28 0 37 -3 33 -13 -1 -5 2 -6 8 -2 6 3 8 11 4 16 -3 6 0 9 7
8 8 -1 21 0 29 4 38 14 112 27 122 21 7 -5 8 -2 3 6 -6 10 -4 12 8 7 10 -3 17
-2 17 3 0 6 3 9 8 9 4 -1 10 0 15 1 4 1 10 3 15 4 4 1 25 10 47 20 22 10 58
25 80 33 22 9 46 21 54 27 10 8 17 5 28 -9 15 -19 15 -19 8 3 -6 21 6 28 37
23 5 0 7 5 5 12 -1 6 5 12 13 12 8 0 14 -6 12 -13 -1 -8 2 -11 7 -7 6 3 8 12
5 19 -6 15 60 51 76 41 6 -4 9 -1 8 6 -2 7 2 13 7 14 6 0 22 9 37 19 15 9 33
18 40 20 8 1 28 11 44 23 17 13 34 20 38 16 3 -3 6 -1 6 5 0 7 5 12 11 12 6 0
17 7 26 16 9 8 22 13 29 10 8 -3 13 -2 13 2 -3 19 2 25 11 12 9 -13 10 -13 10
0 0 9 14 24 30 33 17 10 30 16 30 13 0 -3 12 4 26 17 14 12 28 21 30 19 3 -1
11 3 19 10 34 31 45 38 45 31 0 -4 4 -3 8 2 12 18 76 60 67 44 -4 -7 2 -4 13
8 30 30 117 89 107 72 -5 -8 6 0 23 18 18 17 41 35 52 38 11 4 20 11 20 17 0
5 7 7 16 4 10 -4 13 -2 8 6 -5 8 -2 9 9 5 9 -3 16 -3 16 1 -3 19 2 23 15 13
11 -9 16 -9 22 0 4 8 3 9 -4 5 -7 -4 -12 -1 -12 8 0 14 18 21 42 17 5 0 7 5 5
12 -1 6 4 11 11 10 6 -2 12 1 12 7 0 8 76 66 92 69 4 1 18 11 32 24 37 34 56
48 56 42 0 -5 29 17 59 45 9 9 25 22 35 30 18 13 19 13 12 0 -5 -8 2 -3 15 11
43 46 57 53 77 38 15 -13 16 -12 3 4 -8 9 -12 19 -10 21 2 1 22 15 43 29 32
22 43 24 55 14 14 -10 14 -10 4 4 -11 13 -10 19 6 33 11 10 25 15 31 11 6 -3
9 -1 8 5 -2 7 6 17 17 23 10 7 25 18 33 25 7 7 18 9 24 6 6 -4 8 -3 5 3 -6 10
14 31 78 77 22 16 43 34 47 40 4 6 8 8 8 4 0 -4 11 3 24 15 13 12 35 31 50 42
15 11 37 30 48 42 12 12 25 20 30 17 4 -3 8 0 8 6 0 6 5 8 10 5 6 -4 9 -2 8 3
-2 5 22 30 52 55 49 41 55 44 67 29 12 -16 12 -15 7 1 -8 21 41 71 59 60 5 -3
7 -1 3 5 -3 6 8 21 26 33 18 13 49 38 68 56 19 17 38 31 42 30 4 -1 15 8 24
21 10 14 22 21 31 18 10 -4 13 -2 10 8 -4 9 2 17 14 21 10 4 19 11 19 17 0 6
6 6 15 -2 13 -11 14 -10 10 2 -3 8 6 24 20 36 14 12 25 20 25 18 0 -3 13 8 28
22 15 15 47 43 71 62 24 19 50 41 57 48 8 7 14 10 14 6 0 -4 6 0 13 11 8 10
19 15 25 11 8 -5 10 -2 6 8 -4 11 0 16 10 16 9 0 16 4 16 10 0 5 12 16 28 24
15 8 23 15 18 16 -5 0 16 19 45 42 30 24 60 48 67 55 7 7 20 10 30 7 12 -4 13
-3 4 3 -16 12 4 31 38 38 13 2 25 7 29 11 3 4 -2 4 -11 1 -10 -4 -18 -2 -18 3
0 6 5 10 10 10 6 0 19 9 30 20 11 11 26 17 34 14 8 -3 17 -1 21 5 4 7 -1 9
-12 5 -10 -3 2 12 27 34 25 22 48 38 53 35 4 -2 6 -1 5 4 -2 4 1 9 6 10 5 0
13 8 18 17 5 9 14 13 20 10 6 -4 8 -3 5 3 -9 14 29 47 44 37 8 -4 10 -3 5 4
-4 7 -1 12 9 12 9 0 14 4 10 9 -3 5 9 20 27 32 18 13 38 30 44 38 6 8 16 11
22 7 7 -4 12 -2 12 4 0 19 38 53 51 45 7 -5 10 -4 6 2 -8 13 27 46 38 36 4 -5
5 -3 2 3 -8 15 18 38 33 29 6 -4 9 -3 8 2 -4 13 49 64 64 61 7 -2 12 2 11 9
-1 6 21 31 50 55 28 23 58 49 66 56 12 11 16 11 23 0 8 -10 9 -9 5 4 -6 18 15
42 27 30 4 -4 6 -2 4 4 -3 11 60 74 74 74 4 0 28 20 53 45 25 25 50 43 55 40
6 -3 10 0 10 8 0 12 53 67 64 67 3 0 24 20 48 45 24 25 49 45 57 45 8 0 12 3
8 6 -7 8 57 64 73 64 8 0 11 3 7 6 -3 4 0 13 8 20 17 17 29 18 19 2 -4 -7 -3
-8 5 -4 6 4 9 11 6 15 -7 12 42 54 54 47 7 -5 8 -1 4 10 -5 13 -3 16 10 11 9
-3 16 -3 15 1 -3 14 14 42 23 36 5 -3 9 0 9 6 0 6 5 8 12 4 6 -4 8 -3 4 4 -8
13 43 54 57 45 6 -4 8 0 4 10 -4 10 1 18 13 22 10 3 21 13 24 21 3 8 11 12 16
9 6 -4 9 -1 8 7 -2 7 5 12 14 12 10 -1 16 2 13 6 -3 4 19 30 48 57 29 26 56
57 60 67 4 10 13 16 22 13 8 -4 12 -1 9 7 -5 13 30 99 37 92 6 -6 1 83 -6 124
-9 45 -28 81 -66 125 -36 40 -45 42 -79 16 -14 -11 -48 -37 -77 -58 -28 -21
-63 -46 -77 -56 -14 -11 -89 -66 -168 -122 -79 -57 -147 -108 -153 -112 -24
-21 -554 -391 -693 -485 -35 -24 -69 -48 -76 -54 -6 -6 -16 -13 -21 -15 -6 -2
-152 -99 -325 -214 -306 -204 -645 -424 -860 -557 -58 -36 -152 -94 -210 -130
-58 -36 -136 -84 -175 -107 -38 -23 -133 -80 -209 -127 -77 -46 -141 -84 -143
-84 -2 0 -79 -46 -128 -78 -11 -6 -27 -15 -35 -19 -8 -3 -46 -25 -85 -48 -133
-80 -603 -345 -780 -440 -38 -21 -83 -45 -100 -55 -29 -17 -85 -47 -305 -163
-58 -30 -127 -62 -153 -71 -308 -103 -430 -70 -413 113 7 74 15 111 28 127 5
7 7 18 6 25 -2 8 3 13 10 11 8 -1 11 2 7 9 -9 14 35 110 47 103 5 -3 7 -2 6 3
-5 15 45 142 54 137 4 -3 5 1 2 9 -3 8 2 21 10 30 8 8 13 17 10 20 -5 5 12 40
33 67 6 8 13 20 15 25 2 6 7 9 11 7 5 -1 6 2 3 7 -7 11 38 104 46 95 3 -3 5 3
5 13 -1 10 4 17 11 15 8 -1 11 2 7 7 -6 11 10 43 40 80 11 13 14 21 7 17 -7
-4 -1 10 14 31 14 21 29 38 34 38 5 0 12 4 17 9 5 5 3 6 -4 2 -23 -13 -13 15
15 41 15 15 21 23 13 18 -9 -5 -7 1 4 19 9 14 21 23 26 20 5 -3 6 2 3 10 -4 9
1 18 10 22 9 3 14 9 11 14 -2 4 4 16 13 26 10 10 21 27 25 37 4 10 11 16 16
13 5 -3 8 2 7 12 0 9 5 16 12 14 7 -1 12 3 10 10 -3 18 32 69 43 62 5 -3 6 2
3 10 -3 9 -1 16 6 16 6 0 8 5 5 10 -3 6 -2 10 2 10 5 0 22 20 37 45 16 24 33
42 39 38 6 -3 7 -1 3 5 -4 7 -2 12 4 12 6 0 9 4 5 9 -3 5 5 17 17 26 13 8 23
19 23 23 0 4 4 6 8 4 5 -1 6 2 2 8 -3 5 7 22 22 37 15 14 21 22 13 18 -13 -8
-13 -6 -1 8 7 9 17 14 22 11 5 -3 6 1 3 9 -7 18 21 41 38 31 10 -6 11 -5 1 7
-10 12 -9 18 5 30 9 8 25 26 35 39 10 14 15 19 11 11 -5 -9 -3 -12 4 -7 6 4 9
12 7 19 -3 7 10 28 28 48 17 20 38 46 46 57 8 12 18 19 23 16 4 -3 5 1 2 9 -3
9 4 22 18 31 12 9 19 16 14 16 -5 0 -3 7 4 15 7 8 17 12 23 8 5 -3 7 -1 3 5
-7 11 37 65 46 56 4 -3 5 3 5 13 -2 13 4 17 18 15 15 -2 17 0 6 6 -11 8 -10
13 5 30 10 12 22 18 27 15 6 -3 7 -1 3 6 -4 6 5 24 23 41 16 17 26 30 23 30
-4 0 0 6 8 13 8 7 28 29 43 50 16 20 32 35 38 32 5 -3 6 0 3 8 -3 8 3 20 12
28 16 12 17 12 11 -4 -4 -11 -3 -16 4 -12 6 4 8 13 5 20 -2 7 10 29 28 49 18
19 30 39 27 42 -3 4 2 4 12 1 10 -4 16 -3 12 2 -3 5 0 15 7 23 7 7 30 32 50
55 20 23 39 39 42 35 3 -3 6 1 6 8 0 7 15 28 33 45 17 18 47 49 65 69 19 20
39 33 44 30 7 -4 8 -2 4 5 -9 14 97 124 108 113 4 -4 7 -2 5 3 -4 16 12 45 22
39 5 -3 9 2 9 10 0 9 7 16 17 16 9 0 13 3 10 6 -4 4 10 25 31 46 70 76 87 96
90 109 2 8 7 16 10 19 14 10 7 77 -11 103 -9 15 -34 35 -55 45 -75 38 -244 85
-347 97 -58 7 -252 14 -257 10z"/>
<path d="M2995 3921 c-3 -5 -2 -12 3 -15 5 -3 9 1 9 9 0 17 -3 19 -12 6z"/>
<path d="M2915 3820 c3 -5 8 -10 11 -10 2 0 4 5 4 10 0 6 -5 10 -11 10 -5 0
-7 -4 -4 -10z"/>
<path d="M6495 3780 c3 -5 8 -10 11 -10 2 0 4 5 4 10 0 6 -5 10 -11 10 -5 0
-7 -4 -4 -10z"/>
<path d="M6295 3600 c-3 -5 -1 -10 4 -10 6 0 11 5 11 10 0 6 -2 10 -4 10 -3 0
-8 -4 -11 -10z"/>
<path d="M6075 3389 c-4 -6 -5 -12 -2 -15 2 -3 7 2 10 11 7 17 1 20 -8 4z"/>
<path d="M2495 3351 c-3 -5 -2 -12 3 -15 5 -3 9 1 9 9 0 17 -3 19 -12 6z"/>
<path d="M5899 3233 c-13 -17 -13 -17 6 -3 11 8 22 16 24 17 2 2 0 3 -6 3 -6
0 -17 -8 -24 -17z"/>
<path d="M5555 2940 c-3 -5 -1 -10 4 -10 6 0 11 5 11 10 0 6 -2 10 -4 10 -3 0
-8 -4 -11 -10z"/>
<path d="M5115 2581 c-3 -5 -2 -12 3 -15 5 -3 9 1 9 9 0 17 -3 19 -12 6z"/>
<path d="M4719 2233 c-13 -16 -12 -17 4 -4 16 13 21 21 13 21 -2 0 -10 -8 -17
-17z"/>
<path d="M4515 2060 c3 -5 8 -10 11 -10 2 0 4 5 4 10 0 6 -5 10 -11 10 -5 0
-7 -4 -4 -10z"/>
<path d="M4215 1821 c-3 -5 -2 -12 3 -15 5 -3 9 1 9 9 0 17 -3 19 -12 6z"/>
<path d="M3656 1382 c-3 -4 4 -9 15 -9 23 -2 25 3 4 10 -8 4 -16 3 -19 -1z"/>
<path d="M3090 940 c0 -5 5 -10 11 -10 5 0 7 5 4 10 -3 6 -8 10 -11 10 -2 0
-4 -4 -4 -10z"/>
<path d="M2615 620 c-3 -5 -1 -10 4 -10 6 0 11 5 11 10 0 6 -2 10 -4 10 -3 0
-8 -4 -11 -10z"/>
<path d="M673 145 c0 -8 4 -12 9 -9 5 3 6 10 3 15 -9 13 -12 11 -12 -6z"/>
<path d="M1616 118 c3 -5 10 -6 15 -3 13 9 11 12 -6 12 -8 0 -12 -4 -9 -9z"/>
<path d="M1279 53 c-13 -16 -12 -17 4 -4 16 13 21 21 13 21 -2 0 -10 -8 -17
-17z"/>
</g>
</svg>
